/* XPM */
static char *result[] = {
/* columns rows colors chars-per-pixel */
"50 50 23 1 ",
"  c #D3BCA7",
". c #CDCCB8",
"X c #D0C0B2",
"o c #D5C0B2",
"O c #D5C6BA",
"+ c #D9C6BA",
"@ c #D2D1BF",
"# c #E3C6BB",
"$ c #D9CCC1",
"% c #DDCCC1",
"& c #D7D6C6",
"* c #E6CCC2",
"= c #E8D6C6",
"- c #EDD6C6",
"; c #EADACC",
": c #EFDACC",
"> c #FDDDD0",
", c #E4E3CD",
"< c #E7E6D2",
"1 c #FDE0D5",
"2 c #FDE3D9",
"3 c #FAF0E5",
"4 c #FBF2E8",
/* pixels */
"                                                  ",
" >>>>>134X=$=======;===334.,,,,,,,<,,,<,<34#>>>>> ",
" 1>>>>134X======;======3333,,,,<,,,,,,,<334#>>>>1 ",
" >>>>13333====;=======333333<<<<<<<<<<<33333>>>1> ",
" 1111333333==========3333333333333333333333331111 ",
" 333444444444443333333333333333333333333333333333 ",
" 334ooooooooooo3333333444444444433333344444444443 ",
" 34o------------333334..........333334##########3 ",
" 4o----+--------:3334.,,,,,,,,,,,3334#>>>>>>*>>>> ",
" 4o-------------:334.,,,,@,,,,,,,<34#>>*>>>>>>>>> ",
" 4o-%-----------:334.,,,,,,,,,,,,<34#>>>>>*>>>>1> ",
" 4o----%---:----:334.,&,,,,,,,,<,<34#>>*>>>>>>>>> ",
" 4o-------------:334.,,,,@,,,,,,,<34#>>>>>>>>>1>> ",
" 4o-+--------:--:334.,,,,,,,,<,,,<34#>*>>>>1>>>>> ",
" 4o-----:--:----:334.,@,,,,<,,,<,<34#>>>>>>>>1>>> ",
" 33------------:33333,,,,,,,,,,,<3333>>1>>>>>>>>1 ",
" 333:::::::::::3333333<<<<<<<<<<33333311111111113 ",
" 333333333333333333333333333333333333333333333333 ",
" 333333333333333333333333333333333333333334444444 ",
" o33333333333333333333333XXXXXXXXXXX333334ooooooo ",
" --333333##########33333X============3334o------- ",
" --:3333#>>>>>>>>>>>333X===O=========;34o-----+-- ",
" --:334#>>>*>*>>>>>>133X======O======;34o--+----- ",
" --:334#>>>>>>>>>>>>133X=O===========;34o-------- ",
" --:334#>>*>>>>>>>>>133X====O========;34o-+--+--- ",
" :-:334#>*>>>>>>>>>>133XO============;34o-------- ",
" --:334#>>>>>>>>>>>>133X=============;34o-------- ",
" -:3334#>>>>>>>>>>>>1333============;3333-------- ",
" :333333>>>>>>>>>>>133333;;;;;;;;;;;333333::::::: ",
" 333333331111111111333333333333333333333333333333 ",
" 333333333333333333333333333344444444443333333333 ",
" 4443333333344444444443333334oooooooooo3333334444 ",
" ....3333334XXXXXXXXXX333334o-----------33334.... ",
" ,,,,,33334X===========3334o-----%------:334.,,,, ",
" ,,,,,<334X===$===O====;334o--%---------:34.,,@,, ",
" ,,,<,<334X============;334o----------:-:34.,,,,, ",
" ,,,,,<334X=O===O===;==;334o------:-----:34.,&,,, ",
" ,,,<,<334X==========;=;334o-%------:---:34.,,,,@ ",
" ,<,,,<334X==$=====;===;334o----:-------:34.@,,,, ",
" ,,,<,<334X=====;======;3333-----------:334.,,,,< ",
" <,,,,<3333===========;333333::::::::::3334.,,,,, ",
" ,,,,<333333;;;;;;;;;;3333333333333333333333,,,<, ",
" <<<<3333333333333333333333333333333333333333<<<< ",
" 333333333333333333333333333444444444443333333333 ",
" 444433333344444444443333334...........3333334444 ",
" ####333334XXXXXXXXXX333334.,,@,,,,,,,,,33334#### ",
" >>>>>3334X==$========3334.,,,,,,,&,,,,,,334#>>>> ",
" *>>>>234X=======$====;334.,@,,,&,,,,,,,,34#>>>*> ",
" >>>>1234X=$==$=======;334.,,,,,,,,,,,,<,34#>*>>> ",
"                                                  "
};
