/* XPM */
static char *result[] = {
/* columns rows colors chars-per-pixel */
"50 50 7 1 ",
"  c #302504",
". c #78C672",
"X c #88CF64",
"o c #B5C96B",
"O c #EBCA55",
"+ c #578FA1",
"@ c #FCF3B3",
/* pixels */
".....@..........oo................................",
"...........................X......................",
"...........................................o......",
"..X........X.......o.................o.....oo.....",
"...............@..............................X...",
"...............@............@.....................",
"..................................................",
"......................X...........................",
".....o..........................X.................",
"................o.................................",
"......................       .....................",
"..........X.........          .......@....o...X...",
"..@......XXX.......            ...................",
"..........X......                .................",
".................                .................",
"................                  ...............@",
"@..............                    .............@@",
"...............        OOOO        ..............@",
"...............       OOOOOO       ...............",
"...............      OOO  OOO      ...............",
"...X.........o.     OO      OO     .......X.......",
"...............     OO      OO     ...............",
"...............     OO      OO     ...............",
".......@.......     OO      OO     ...............",
"............X..     OO      OO     ...............",
"...............      OOO  OOO      ..X.........o..",
"...............       OOOOOO       .XXX...........",
".....o..........       OOOO       ...X............",
".................                .................",
".................                X........X.......",
"...........@.......            ...................",
"....................          ....................",
".....................        @....................",
"...X........X...........++........................",
"...................X...++++....................@..",
"..................XXX.++..++......o...............",
"......o............X.++....++.....oo.....o........",
".....oo.............++......++....................",
"...................++........++.................o.",
"..................+++........+++..................",
"................X.................................",
"..................................................",
"..X.....................o...........X.............",
"........o.........................................",
"...............................@..................",
"............@......X..............................",
"............@.................................X...",
"......X.....................X..........o..........",
"..................................................",
"................o..................@@............."
};
