/* XPM */
static char *_38a1e0189c1488f8cfd90cb339b467bldzsGt5SwNJmnlgZ[] = {
/* columns rows colors chars-per-pixel */
"50 50 6 1 ",
"  c black",
". c red",
"X c #78C672",
"o c #88CF64",
"O c #B5C96B",
"+ c #FCF3B3",
/* pixels */
"XXXXX+XXXXXXXXXXOOXXXXXXXXXXXXXXXXXXXXXXXXXXXXXXXX",
"XXXXXXXXXXXXXXXXXXXXXXXXXXXoXXXXXXXXXXXXXXXXXXXXXX",
"XXXXXXXXXXXXXXXXXXXXXXXXXXXXXXXXXXXXXXXXXXXOXXXXXX",
"XXoXXXXXXXXoXXXXXXXOXXXXXXXXXXXXXXXXXOXXXXXOOXXXXX",
"XXXXXXXXXXXXXXX+XXXXXXXXXXXXXXXXXXXXXXXXXXXXXXoXXX",
"XXXXXXXXXXXXXXX+XXXX  ..XXXX+XXXXXXXXXXXXXXXXXXXXX",
"XXXXXXXXXXXXXXXXXXXX  ....XXXXXXXXXXXXXXXXXXXXXXXX",
"XXXXXXXXXXXXXXXXXXXX  .......XXXXXXXXXXXXXXXXXXXXX",
"XXXXXOXXXXXXXXXXXXXX  .........XoXXXXXXXXXXXXXXXXX",
"XXXXXXXXXXXXXXXXOXXX  ............XXXXXXXXXXXXXXXX",
"XXXXXXXXXXXXXXXXXXXX  ..............XXXXXXXXXXXXXX",
"XXXXXXXXXXoXXXXXXXXX  ................XXXXOXXXoXXX",
"XX+XXXXXXoooXXXXXXXX  ..............XXXXXXXXXXXXXX",
"XXXXXXXXXXoXXXXXXXXX  ............XXXXXXXXXXXXXXXX",
"XXXXXXXXXXXXXXXXXXXX  ..........XXXXXXXXXXXXXXXXXX",
"XXXXXXXXXXXXXXXXXXXX  ........OXXXXXXXXXXXXXXXXXX+",
"+XXXXXXXXXXXXXXXXXXX  ......XXXXXXXXXXXXXXXXXXXX++",
"XXXXXXXXXXXXXXXXXXXX  ....XXXXXXXXoXXXXXXXXXXXXXX+",
"XXXXXXXXXXXXXXXXXXXX  ..XXXXXXXXXXXXXXXXXXXXXXXXXX",
"XXXXXXXXXXXXXXXXXXXX  XXXXXXXXXXXXXXXXXXXXXXXXXXXX",
"XXXoXXXXXXXXXOXXXXXX  XXXXOXXXXXXXXXXXXXXXoXXXXXXX",
"XXXXXXXXXXXXXXXXXXXX  XXXXXXXXXXXXXXXXXXXXXXXXXXXX",
"XXXXXXXXXXXXXXXXXXXX  XXXXXXXXXXXXXXXXXXXXXXXXXXXX",
"XXXXXXX+XXXXXXXXXXXX  XXXXXXXXX++XXXXXXXXXXXXXXXXX",
"XXXXXXXXXXXXoXXXXXXX  XXXXXXXXXXXXXXXXXXXXXXXXXXXX",
"XXXXXXXXXXXXXXXXXXXX  XXXXXXXXXXXXXXXoXXXXXXXXXOXX",
"XXXXXXXXXXXXXXXXXOXX  XXXoXXXXXXXXXXoooXXXXXXXXXXX",
"XXXXXOXXXXXXXXXXXXXX  XXXXXXXXXXXXXXXoXXXXXXXXXXXX",
"XXXXXXXXXXXXXXXXXXXX  XXXXXXXXXXXXXXXXXXXXXXXXXXXX",
"XXXXXXXXXXXXXXXXXXXX  XXXXXXXXXXXoXXXXXXXXoXXXXXXX",
"XXXXXXXXXXX+XXXXXXXX  XXXXXXXXXXXXXXXXXXXXXXXXXXXX",
"XXXXXXXXXXXXXXXXXXXX  XXXXXXXXXXXXXXXXXXXXXXXXXXXX",
"XXXXXXXXXXXXXXXXXXXX  XXXXXXX+XXXXXXXXXXXXXXXXXXXX",
"XXXoXXXXXXXXoXXXXXXX  XXXXXXXXXXXXXXXXXXXXXXXXXXXX",
"XXXXXXXXXXXXXXXXXXXo  XXXXXXXXXXXXXXXXXXXXXXXXX+XX",
"XXXXXXXXXXXXXXXXXXoo  XXXXXXXXXXXXOXXXXXXXXXXXXXXX",
"XXXXXXOXXXXXXXXXXXXo  XXXXXXoXXXXXOOXXXXXOXXXXXXXX",
"XXXXXOOXXXXXXXXXXXXX  XXXXXXXXXXXXXXXXXXXXXXXXXXXX",
"XXXXXXXXXXXXXXXXXXXX  XXXXXXXXXXXXXXXXXXXXXXXXXXOX",
"XXXXXXXXXXXXXXXXXXXX  XXXXXXXXXXXXXXXXXXXXXXXXXXXX",
"XXXXXXXXXXXXXXXXoXXX  XXXXXXXXXXXXXXXXXXXXXXXXXXXX",
"XXXXXXXXXXXXXXXXXXXX  XXXXXXXXXXXXXXXXXXXXXXXXXXXX",
"XXoXXXXXXXXXXXXXXXXX  XXOXXXXXXXXXXXoXXXXXXXXXXXXX",
"XXXXXXXXOXXXXXXXXXXX  XXXXXXXXXXXXXXXXXXXXXXXXXXXX",
"XXXXXXXXXXXXXXXXXXXX  XXXXXXXXX+XXXXXXXXXXXXXXXXXX",
"XXXXXXXXXXXX+XXXXXXoXXXXXXXXXXXXXXXXXXXXXXXXXXXXXX",
"XXXXXXXXXXXX+XXXXXXXXXXXXXXXXXXXXXXXXXXXXXXXXXoXXX",
"XXXXXXoXXXXXXXXXXXXXXXXXXXXXoXXXXXXXXXXOXXXXXXXXXX",
"XXXXXXXXXXXXXXXXXXXXXXXXXXXXXXXXXXXXXXXXXXXXXXXXXX",
"XXXXXXXXXXXXXXXXOXXXXXXXXXXXXXXXXXX++XXXXXXXXXXXXX"
};
