/* XPM */
static char *result[] = {
/* columns rows colors chars-per-pixel */
"50 50 12 1 ",
"  c #BA5F04",
". c #78C672",
"X c #C98334",
"o c #DB9A4B",
"O c #88CF64",
"+ c #B5C96B",
"@ c #8F1396",
"# c #DA34E0",
"$ c #CF64D1",
"% c #E8CCB1",
"& c #FCF3B3",
"* c #E5BAE8",
/* pixels */
".....&..........++................................",
"...........................O......................",
"...........................................+......",
"..O........O.......+.................+.....++.....",
"...............&..............................O...",
"...............&............&.....................",
"..................................................",
"......................O...........................",
".....+..........................O.................",
"................+.................................",
"..................................................",
"..........O........@@@.....+.........&....+...O...",
"..&......OOO.......@$$@...........................",
"..........O........@#$@@@.........................",
"................@@@@##$$@.....+...................",
"...............@$$$$@@#$@....++..................&",
"&.............@**$$$$@##$@......................&&",
".............@#**$$$$#@@@@........O..............&",
".............@#$$$$$$#@...........................",
".............@#$$$$$##@...........................",
"...O......@@@@##$$$###@...+...............O.......",
"..........@$##@######@.....  .....................",
"...........@$#@@####@...   o .....................",
".......&...@$$##@@@@.... ooX ..&&.................",
"...........@@@$#@......  oXX    ..................",
".............@$$@..... ooX  XXXX ....O.........+..",
"..............@@@+.... oXX XXoo%% ..OOO...........",
".....+................    XXooo%%o ..O............",
"......................... XXoooooo ...............",
"......................... XXoooooo .......O.......",
"...........&............. XXXooooo    ............",
".......................... XXXooo XXo ............",
"........................... XXXX  Xoo ............",
"...O........O...............    XXo  .............",
"...................O........... Xoo ...........&..",
"..................OOO.......... o   ..............",
"......+............O........O..  .++.....+........",
".....++...........................................",
"................................................+.",
"..................................................",
"................O.................................",
"..................................................",
"..O.....................+...........O.............",
"........+.........................................",
"...............................&..................",
"............&......O..............................",
"............&.................................O...",
"......O.....................O..........+..........",
"..................................................",
"................+..................&&............."
};
