/* XPM */
static char *_c41fd6a656142fce13a15a93caca149DsqtJj1rqpToOQsL[] = {
/* columns rows colors chars-per-pixel */
"50 50 8 1 ",
"  c None",
". c #4A074A",
"X c #A14800",
"o c #FF6F00",
"O c #D98B50",
"+ c #D909CF",
"@ c #E876E4",
"# c white",
/* pixels */
"                                                  ",
"                                                  ",
"                                                  ",
"                                                  ",
"                                                  ",
"                                                  ",
"                                                  ",
"                                                  ",
"                      ...                         ",
"                      .@@.                        ",
"                      .+@...                      ",
"                   ....++@@.                      ",
"                  .@@@@..+@.                      ",
"                 .##@@@@.++@.                     ",
"                .+##@@@@+....                     ",
"                .+@@@@@@+.                        ",
"                .+@@@@@++.                        ",
"             ....++@@@+++.                        ",
"             .@++.++++++.                         ",
"              .@+..++++.                          ",
"              .@@++....                           ",
"              ...@+.         XX                   ",
"                .@@.      XXXOX                   ",
"                 ...      XOOoX                   ",
"                         XXOooXXXX                ",
"                        XOOoXXooooX               ",
"                        XOooXOOOoooX              ",
"                        XXXXOOOOOoooX             ",
"                           XOOOOOOooX             ",
"                           XOOOOOOooX             ",
"                           XO##OOOooXXXX          ",
"                            X##OOooXooOX          ",
"                             XooooXXoOOX          ",
"                              XXXXooOXX           ",
"                                 XoOOX            ",
"                                 XOXXX            ",
"                                 XX               ",
"                                                  ",
"                                                  ",
"                                                  ",
"                                                  ",
"                                                  ",
"                                                  ",
"                                                  ",
"                                                  ",
"                                                  ",
"                                                  ",
"                                                  ",
"                                                  ",
"                                                  "
};
