/* XPM */
static char *_6ef479ae26e44eb83bfcf2f1a47fa2efYZ2ynqOGDwxP5iB[] = {
/* columns rows colors chars-per-pixel */
"50 50 2 1 ",
"  c None",
". c #ED1C24",
/* pixels */
"                                                  ",
"                                                  ",
"                                                  ",
"                                                  ",
"                                                  ",
"                                                  ",
"                                                  ",
"                                                  ",
"            ......            ........            ",
"           ........          ..........           ",
"          ..........        ............          ",
"         ............      ..............         ",
"        ..............    ................        ",
"       ................  ..................       ",
"       ....................................       ",
"       ....................................       ",
"       ....................................       ",
"       ....................................       ",
"       ....................................       ",
"       ....................................       ",
"       ....................................       ",
"       ....................................       ",
"       ....................................       ",
"       ....................................       ",
"       ....................................       ",
"       ....................................       ",
"       ....................................       ",
"       ....................................       ",
"        ..................................        ",
"         ................................         ",
"          ..............................          ",
"           ............................           ",
"            ..........................            ",
"             ........................             ",
"              ......................              ",
"               ....................               ",
"                ..................                ",
"                 ................                 ",
"                  ..............                  ",
"                   ............                   ",
"                    ..........                    ",
"                     ........                     ",
"                      ......                      ",
"                       ....                       ",
"                        ..                        ",
"                                                  ",
"                                                  ",
"                                                  ",
"                                                  ",
"                                                  "
};
