/* XPM */
static char *_c5e98a4e1644e989af6f4644051704aMjrgj5DgOkmzmrCM[] = {
/* columns rows colors chars-per-pixel */
"50 50 27 1 ",
"  c gray1",
". c gray9",
"X c #241201",
"o c #291502",
"O c #3E2C1B",
"+ c #6C3C0D",
"@ c #78430F",
"# c #752B6B",
"$ c red",
"% c #865627",
"& c #833078",
"* c #78C672",
"= c #E0E336",
"- c #88CF64",
"; c #B5C96B",
": c #933686",
"> c #8F4585",
", c #9E4A92",
"< c #CE4CBD",
"1 c #CF4CBD",
"2 c #E655D3",
"3 c #E966D7",
"4 c #EB76DB",
"5 c #45A3CB",
"6 c #4DB6E3",
"7 c #5FBDE5",
"8 c #FCF3B3",
/* pixels */
"*****8**********;;********************************",
"***************************-**********************",
"*******************************************;******",
"**-********-*******;*****************;*****;;*****",
"***************8******************************-***",
"***************8************8*********************",
"**************************************************",
"**********************-***************************",
"*****;***********************OoX-*****************",
"****************;***********OooX******************",
"***********************OoooX=ooX******************",
"**********-***********OoooooX=X******8****;***-***",
"**8******---**********OooooooX********************",
"**********-******$$.**+++ooooX******5*************",
"***************$$$$.**% @X++oX;****55*************",
"**************$$$$$.*-%.@@@+oX;***565************8",
"8**************$$$$.**%@@@@+X****5665***********88",
"*****************$$.***%%@@@+***56665************8",
"*******************.*****%<<<<*566665*************",
"*******************%@****32<+++666665*************",
"***-*********;*****%@@@++32<@@+77777******-*******",
"*******************.%@@@+32<%@@+******************",
"*******************.*****322<%@+55****************",
"*******8***********.*****3222<@+6655**************",
"************-******.*****4333<@+66665*************",
"*******************.******,::%@+76665-*********;**",
"*****************;*******-,::@@+*7665--***********",
"*****;*******************222222<**765-************",
"************************32222222<**75*************",
"************************32222222<-**5*****-*******",
"***********8***********++32222222<****************",
"**********************%@@+3333333<****************",
"**********************%@@+***++++*****************",
"***-********-*********%@+****%@@@++&&#************",
"*******************-**%@+****%@@@@+>&#*********8**",
"******************---*%@@+****%@@@+>&#************",
"******;************-***%@+**-*****;;>#***;********",
"*****;;****************>&#***********#************",
"**********************>&&#**********************;*",
"*********************>&&&#************************",
"****************-*********************************",
"**************************************************",
"**-*********************;***********-*************",
"********;*****************************************",
"*******************************8******************",
"************8******-******************************",
"************8*********************************-***",
"******-*********************-**********;**********",
"**************************************************",
"****************;******************88*************"
};
