/* XPM */
static char *_645a67152ef4a9caeba5014b2f76a7cQPFMniAfHOv9Mrvq[] = {
/* columns rows colors chars-per-pixel */
"50 50 27 1 ",
"  c gray1",
". c gray9",
"X c #241201",
"o c #291502",
"O c #3E2C1B",
"+ c #6C3C0D",
"@ c #78430F",
"# c #752B6B",
"$ c red",
"% c #865627",
"& c #833078",
"* c #78C672",
"= c #E0E336",
"- c #88CF64",
"; c #B5C96B",
": c #933686",
"> c #8F4585",
", c #9E4A92",
"< c #CE4CBD",
"1 c #CF4CBD",
"2 c #E655D3",
"3 c #E966D7",
"4 c #EB76DB",
"5 c #45A3CB",
"6 c #4DB6E3",
"7 c #5FBDE5",
"8 c #FCF3B3",
/* pixels */
"*****8**********;;********************************",
"***************************-**********************",
"*******************************************;******",
"**-********-*******;*****************;*****;;*****",
"***************8******************************-***",
"***************8************8*********************",
"**************************************************",
"**********************-***************************",
"*****;****************XoO*******-*****************",
"****************;*****XooO************************",
"**********************Xoo=XoooO*******************",
"**********-************X=XoooooO*****8****;***-***",
"**8******---************XooooooO******************",
"**********-******5******Xoooo+++**.$$*************",
"*****************55*****Xo++X@ %**.$$$$***********",
"*****************565*-**Xo+@@@.%**.$$$$$*********8",
"8****************5665****X+@@@@%**.$$$$*********88",
"*****************56665***+@@@%%***.$$************8",
"*****************566665*1111%*****.***************",
"*****************566666+++123****@%***************",
"***-*********;****77777+@@123++@@@%*******-*******",
"**********************+@@%123+@@@%.***************",
"********************55+@%1223*****.***************",
"*******8**********5566+@12223**88*.***************",
"************-****56666+@13334*****.***************",
"*****************56667+@%::,******.**-*********;**",
"*****************5667*+@@::,********---***********",
"*****;***********567**<222222********-************",
"*****************57**<22222223********************",
"*****************5***<22222223***-********-*******",
"***********8********122222223++*******************",
"********************13333333+@@%******************",
"*********************++++***+@@%******************",
"***-********-***#&&++@@@%****+@%******************",
"****************#&>+@@@@%****+@%***************8**",
"****************#&>+@@@%****+@@%**;***************",
"******;*********#>*-********+@%***;;*****;********",
"*****;;*********#***********#&>*******************",
"****************************#&&>****************;*",
"****************************#&&&>*****************",
"****************-*********************************",
"**************************************************",
"**-*********************;***********-*************",
"********;*****************************************",
"*******************************8******************",
"************8******-******************************",
"************8*********************************-***",
"******-*********************-**********;**********",
"**************************************************",
"****************;******************88*************"
};
