/* XPM */
static char *bd1a17689a874d28abe691f4b9d00939UighJljMDRRDb5jo[] = {
/* columns rows colors chars-per-pixel */
"50 50 22 1 ",
"  c #CDCCB8",
". c #D0C0B2",
"X c #D5C0B2",
"o c #D5C6BA",
"O c #D9C6BA",
"+ c #D2D1BF",
"@ c #E3C6BB",
"# c #D9CCC1",
"$ c #DDCCC1",
"% c #D7D6C6",
"& c #E6CCC2",
"* c #E8D6C6",
"= c #EDD6C6",
"- c #EADACC",
"; c #EFDACC",
": c #FDDDD0",
"> c #E4E3CD",
", c #E7E6D2",
"< c #FDE0D5",
"1 c #FDE3D9",
"2 c #FAF0E5",
"3 c #FBF2E8",
/* pixels */
":<:<::<23.****o******-*223 >>>>>>>>>>>>>,23@::::::",
"::::::<23.*#*******-***223 >>>>>>>,>>>,>,23@::::::",
":<::::<23.******-******2222>>>>,>>>>>>>,223@::::<:",
":::::<2222****-*******222222,,,,,,,,,,,22222:::<::",
"<<<<<222222**********222222222222222222222222<<<<<",
"22223333333333322222222222222222222222222222222222",
"2223XXXXXXXXXXX22222223333333333222222333333333322",
"223X============222223          222223@@@@@@@@@@22",
"23X====O========;2223 >>>>>>>>>>>2223@::::::&::::2",
"23X=============;223 >>>>+>>>>>>>,23@::&:::::::::<",
"23X=$===========;223 >>>>>>>>>>>>,23@:::::&::::<:<",
"23X====$===;====;223 >%>>>>>>>>,>,23@::&:::::::::<",
"23X=============;223 >>>>+>>>>>>>,23@:::::::::<::<",
"23X=O========;==;223 >>>>>>>>,>>>,23@:&::::<:::::<",
"23X=====;==;====;223 >+>>>>,>>>,>,23@::::::::<:::<",
"222============;22222>>>>>>>>>>>,2222::<::::::::<2",
"2222;;;;;;;;;;;2222222,,,,,,,,,,222222<<<<<<<<<<22",
"22222222222222222222222222222222222222222222222222",
"22222222222222222222222222222222222222222233333333",
"XX22222222222222222222222...........222223XXXXXXXX",
"===222222@@@@@@@@@@22222.************2223X========",
"===;2222@:::::::::::222.***o*********-23X=====O===",
"===;223@:::&:&::::::<22.******o******-23X==O======",
"===;223@::::::::::::<22.*o***********-23X=========",
"===;223@::&:::::::::<22.****o********-23X=O==O====",
"=;=;223@:&::::::::::<22.o************-23X=========",
"===;223@::::::::::::<22.*************-23X=========",
";=;2223@::::::::::::<222************-2222=========",
";;222222:::::::::::<22222-----------222222;;;;;;;;",
"222222222<<<<<<<<<<2222222222222222222222222222222",
"22222222222222222222222222222333333333322222222222",
"33332222222233333333332222223XXXXXXXXXX22222233333",
"     2222223..........222223X===========22223     ",
">>>>>>22223.***********2223X=====$======;223 >>>>+",
" >>>>>,223.***#***o****-223X==$=========;23 >>+>>>",
">>>>,>,223.************-223X==========;=;23 >>>>>>",
">>>>>>,223.*o***o***-**-223X======;=====;23 >%>>>>",
">>>>,>,223.**********-*-223X=$======;===;23 >>>>+>",
">>,>>>,223.**#*****-***-223X====;=======;23 +>>>>>",
">>>>,>,223.*****-******-2222===========;223 >>>>,>",
">,>>>>,2222***********-222222;;;;;;;;;;2223 >>>>>,",
",>>>>,222222----------2222222222222222222222>>>,>>",
",,,,,2222222222222222222222222222222222222222,,,,,",
"22222222222222222222222222223333333333322222222222",
"3333322222233333333332222223           22222233333",
"@@@@@222223..........222223 >>+>>>>>>>>>22223@@@@@",
"::::::2223.**#********2223 >>>>>>>%>>>>>>223@:::::",
":&::::123.*******#****-223 >+>>>%>>>>>>>>23@:::&::",
":::::<123.*#**#*******-223 >>>>>>>>>>>>,>23@:&::::",
":::<::123.**********-*-223 >>>+>>>>>>,>>>23@::::&:"
};
