/* XPM */
static char *a794595a63fe482fd2b63a743682347aPOHIvk58q78fNnPk[] = {
/* columns rows colors chars-per-pixel */
"50 50 5 1 ",
"  c #E8D6C6",
". c #EDD6C6",
"X c #FDDDD0",
"o c #E4E3CD",
"O c #FAF0E5",
/* pixels */
".......OO              OOOoooooooooooooooOO.......",
".......OO              OOOoooooooooooooooOO.......",
".......OO              OOOOoooooooooooooOOO.......",
"......OOOO            OOOOOOoooooooooooOOOOO......",
".....OOOOOO          OOOOOOOOOOOOOOOOOOOOOOOO.....",
"OOOOOOOOOOOOOOOOOOOOOOOOOOOOOOOOOOOOOOOOOOOOOOOOOO",
"OOOO...........OOOOOOOOOOOOOOOOOOOOOOOOOOOOOOOOOOO",
"OOO.............OOOOOOooooooooooOOOOOOXXXXXXXXXXOO",
"OO...............OOOOooooooooooooOOOOXXXXXXXXXXXXO",
"OO...............OOOooooooooooooooOOXXXXXXXXXXXXXX",
"OO...............OOOooooooooooooooOOXXXXXXXXXXXXXX",
"OO...............OOOooooooooooooooOOXXXXXXXXXXXXXX",
"OO...............OOOooooooooooooooOOXXXXXXXXXXXXXX",
"OO...............OOOooooooooooooooOOXXXXXXXXXXXXXX",
"OO...............OOOooooooooooooooOOXXXXXXXXXXXXXX",
"OOO.............OOOOOooooooooooooOOOOXXXXXXXXXXXXO",
"OOOO...........OOOOOOOooooooooooOOOOOOXXXXXXXXXXOO",
"OOOOOOOOOOOOOOOOOOOOOOOOOOOOOOOOOOOOOOOOOOOOOOOOOO",
"OOOOOOOOOOOOOOOOOOOOOOOOOOOOOOOOOOOOOOOOOOOOOOOOOO",
"..OOOOOOOOOOOOOOOOOOOOOOO           OOOOOO........",
"...OOOOOOXXXXXXXXXXOOOOO             OOOO.........",
"....OOOOXXXXXXXXXXXXOOO               OO..........",
"....OOOXXXXXXXXXXXXXXOO               OO..........",
"....OOOXXXXXXXXXXXXXXOO               OO..........",
"....OOOXXXXXXXXXXXXXXOO               OO..........",
"....OOOXXXXXXXXXXXXXXOO               OO..........",
"....OOOXXXXXXXXXXXXXXOO               OO..........",
"...OOOOXXXXXXXXXXXXXXOOO             OOOO.........",
"..OOOOOOXXXXXXXXXXXXOOOOO           OOOOOO........",
"OOOOOOOOOXXXXXXXXXXOOOOOOOOOOOOOOOOOOOOOOOOOOOOOOO",
"OOOOOOOOOOOOOOOOOOOOOOOOOOOOOOOOOOOOOOOOOOOOOOOOOO",
"OOOOOOOOOOOOOOOOOOOOOOOOOOOOO..........OOOOOOOOOOO",
"oooooOOOOOOO          OOOOOO............OOOOOooooo",
"ooooooOOOOO            OOOO..............OOOoooooo",
"oooooooOOO              OOO..............OOooooooo",
"oooooooOOO              OOO..............OOooooooo",
"oooooooOOO              OOO..............OOooooooo",
"oooooooOOO              OOO..............OOooooooo",
"oooooooOOO              OOO..............OOooooooo",
"oooooooOOO              OOOO............OOOooooooo",
"oooooooOOOO            OOOOOO..........OOOOooooooo",
"ooooooOOOOOO          OOOOOOOOOOOOOOOOOOOOOOoooooo",
"oooooOOOOOOOOOOOOOOOOOOOOOOOOOOOOOOOOOOOOOOOOooooo",
"OOOOOOOOOOOOOOOOOOOOOOOOOOOOOOOOOOOOOOOOOOOOOOOOOO",
"OOOOOOOOOOOOOOOOOOOOOOOOOOOOoooooooooooOOOOOOOOOOO",
".....OOOOOO          OOOOOOoooooooooooooOOOOO.....",
"......OOOO            OOOOoooooooooooooooOOO......",
".......OO              OOOoooooooooooooooOO.......",
".......OO              OOOoooooooooooooooOO.......",
".......OO              OOOoooooooooooooooOO......."
};
