/* XPM */
static char *b970499025e9474ef5a4d972c19347ea49PW0g7mHYdSp6i7[] = {
/* columns rows colors chars-per-pixel */
"50 50 2 1 ",
"  c red",
". c #E6B385",
/* pixels */
"       ..              ...               ..       ",
"       ..              ...               ..       ",
"       ..              ....             ...       ",
"      ....            ......           .....      ",
"     ......          ........................     ",
"..................................................",
"....           ...................................",
"...             ......          ......          ..",
"..               ....            ....            .",
"..               ...              ..              ",
"..               ...              ..              ",
"..               ...              ..              ",
"..               ...              ..              ",
"..               ...              ..              ",
"..               ...              ..              ",
"...             .....            ....            .",
"....           .......          ......          ..",
"..................................................",
"..................................................",
"  .......................           ......        ",
"   ......          .....             ....         ",
"    ....            ...               ..          ",
"    ...              ..               ..          ",
"    ...              ..               ..          ",
"    ...              ..               ..          ",
"    ...              ..               ..          ",
"    ...              ..               ..          ",
"   ....              ...             ....         ",
"  ......            .....           ......        ",
".........          ...............................",
"..................................................",
".............................          ...........",
"     .......          ......            .....     ",
"      .....            ....              ...      ",
"       ...              ...              ..       ",
"       ...              ...              ..       ",
"       ...              ...              ..       ",
"       ...              ...              ..       ",
"       ...              ...              ..       ",
"       ...              ....            ...       ",
"       ....            ......          ....       ",
"      ......          ......................      ",
"     ........................................     ",
"..................................................",
"............................           ...........",
"     ......          ......             .....     ",
"      ....            ....               ...      ",
"       ..              ...               ..       ",
"       ..              ...               ..       ",
"       ..              ...               ..       "
};
