/* XPM */
static char *_e00075b162b4d70cc8d3a62030902bfnKO8c12eCAViBufT[] = {
/* columns rows colors chars-per-pixel */
"50 50 26 1 ",
"  c gray1",
". c gray9",
"X c #241201",
"o c #291502",
"O c #3E2C1B",
"+ c #6C3C0D",
"@ c #78430F",
"# c #752B6B",
"$ c #865627",
"% c #833078",
"& c #78C672",
"* c #E0E336",
"= c #88CF64",
"- c #B5C96B",
"; c #933686",
": c #8F4585",
"> c #9E4A92",
", c #CE4CBD",
"< c #CF4CBD",
"1 c #E655D3",
"2 c #E966D7",
"3 c #EB76DB",
"4 c #45A3CB",
"5 c #4DB6E3",
"6 c #5FBDE5",
"7 c #FCF3B3",
/* pixels */
"&&&&&7&&&&&&&&&&--&&&&&&&&&&&&&&&&&&&&&&&&&&&&&&&&",
"&&&&&&&&&&&&&&&&&&&&&&&&&&&=&&&&&&&&&&&&&&&&&&&&&&",
"&&&&&&&&&&&&&&&&&&&&&&&&&&&&&&&&&&&&&&&&&&&-&&&&&&",
"&&=&&&&&&&&=&&&&&&&-&&&&&&&&&&&&&&&&&-&&&&&--&&&&&",
"&&&&&&&&&&&&&&&7&&&&&&&&&&&&&&&&&&&&&&&&&&&&&&=&&&",
"&&&&&&&&&&&&&&&7&&&&&&&&&&&&7&&&&&&&&&&&&&&&&&&&&&",
"&&&&&&&&&&&&&&&&&&&&&&&&&&&&&&&&&&&&&&&&&&&&&&&&&&",
"&&&&&&&&&&&&&&&&&&&&&&=&&&&&&&&&&&&&&&&&&&&&&&&&&&",
"&&&&&-&&&&&&&&&&&&&&&&XoO&&&&&&&=&&&&&&&&&&&&&&&&&",
"&&&&&&&&&&&&&&&&-&&&&&XooO&&&&&&&&&&&&&&&&&&&&&&&&",
"&&&&&&&&&&&&&&&&&&&&&&Xoo*XoooO&&&&&&&&&&&&&&&&&&&",
"&&&&&&&&&&=&&&&&&&&&&&&X*XoooooO&&&&&7&&&&-&&&=&&&",
"&&7&&&&&&===&&&&&&&&&&&&XooooooO&&&&&&&&&&&&&&&&&&",
"&&&&&&&&&&=&&&&&&4&&&&&&Xoooo+++&&&&&&&&&&&&&&&&&&",
"&&&&&&&&&&&&&&&&&44&&&&&Xo++X@ $&&&&&&&&&&&&&&&&&&",
"&&&&&&&&&&&&&&&&&454&=&&Xo+@@@.$&&&&&&&&&&&&&&&&&7",
"7&&&&&&&&&&&&&&&&4554&&&&X+@@@@$&&&&&&&&&&&&&&&&77",
"&&&&&&&&&&&&&&&&&45554&&&+@@@$$&&&=&&&&&&&&&&&&&&7",
"&&&&&&&&&&&&&&&&&455554&<<<<$&&&&&&&&&&&&&&&&&&&&&",
"&&&&&&&&&&&&&&&&&455555+++<12&&&&&&&&&&&&&&&&&&&&&",
"&&&=&&&&&&&&&-&&&&66666+@@<12+&&&&&&&&&&&&=&&&&&&&",
"&&&&&&&&&&&&&&&&&&&&&&+@@$<12+@&&&&&&&&&&&&&&&&&&&",
"&&&&&&&&&&&&&&&&&&&&44+@$<112+@&&&&&&&&&&&&&&&&&&&",
"&&&&&&&7&&&&&&&&&&4455+@<1112+@$7&&&&&&&&&&&&&&&&&",
"&&&&&&&&&&&&=&&&&45555+@<2223&@$&&&&&&&&&&&&&&&&&&",
"&&&&&&&&&&&&&&&&&45556+@$;;>&&@@$&&&&=&&&&&&&&&-&&",
"&&&&&&&&&&&&&&&&&4556&+@@;;>&&&@$&&&===&&&&&&&&&&&",
"&&&&&-&&&&&&&&&&&456&&,111111&&&&&&&&=&&&&&&&&&&&&",
"&&&&&&&&&&&&&&&&&46&&,11111112&&&&&&&&&&&&&&&&&&&&",
"&&&&&&&&&&&&&&&&&4&&&,11111112&&&=&&&&&&&&=&&&&&&&",
"&&&&&&&&&&&7&&&&&&&&<11111112++&&&&&&&&&&&&&&&&&&&",
"&&&&&&&&&&&&&&&&&&&&<2222222+@@$&&&&&&&&&&&&&&&&&&",
"&&&&&&&&&&&&&&&&&&&&&++++&&&+@@$&&&&&&&&&&&&&&&&&&",
"&&&=&&&&&&&&=&&&#%%++@@@$&&&&+@$&&&&&&&&&&&&&&&&&&",
"&&&&&&&&&&&&&&&&#%:+@@@@$&&&&+@$&&&&&&&&&&&&&&&7&&",
"&&&&&&&&&&&&&&&&#%:+@@@$&&&&+@@$&&-&&&&&&&&&&&&&&&",
"&&&&&&-&&&&&&&&&#:&=&&&&&&&&+@$&&&--&&&&&-&&&&&&&&",
"&&&&&--&&&&&&&&&#&&&&&&&&&&&#%:&&&&&&&&&&&&&&&&&&&",
"&&&&&&&&&&&&&&&&&&&&&&&&&&&&#%%:&&&&&&&&&&&&&&&&-&",
"&&&&&&&&&&&&&&&&&&&&&&&&&&&&#%%%:&&&&&&&&&&&&&&&&&",
"&&&&&&&&&&&&&&&&=&&&&&&&&&&&&&&&&&&&&&&&&&&&&&&&&&",
"&&&&&&&&&&&&&&&&&&&&&&&&&&&&&&&&&&&&&&&&&&&&&&&&&&",
"&&=&&&&&&&&&&&&&&&&&&&&&-&&&&&&&&&&&=&&&&&&&&&&&&&",
"&&&&&&&&-&&&&&&&&&&&&&&&&&&&&&&&&&&&&&&&&&&&&&&&&&",
"&&&&&&&&&&&&&&&&&&&&&&&&&&&&&&&7&&&&&&&&&&&&&&&&&&",
"&&&&&&&&&&&&7&&&&&&=&&&&&&&&&&&&&&&&&&&&&&&&&&&&&&",
"&&&&&&&&&&&&7&&&&&&&&&&&&&&&&&&&&&&&&&&&&&&&&&=&&&",
"&&&&&&=&&&&&&&&&&&&&&&&&&&&&=&&&&&&&&&&-&&&&&&&&&&",
"&&&&&&&&&&&&&&&&&&&&&&&&&&&&&&&&&&&&&&&&&&&&&&&&&&",
"&&&&&&&&&&&&&&&&-&&&&&&&&&&&&&&&&&&77&&&&&&&&&&&&&"
};
