/* XPM */
static char *ea3e339be8024c7cd4a18fc724a59cc1sw2aztRT4vEYXHkp[] = {
/* columns rows colors chars-per-pixel */
"50 50 26 1 ",
"  c gray1",
". c gray9",
"X c #241201",
"o c #291502",
"O c #3E2C1B",
"+ c #6C3C0D",
"@ c #78430F",
"# c #752B6B",
"$ c #865627",
"% c #833078",
"& c #78C672",
"* c #E0E336",
"= c #88CF64",
"- c #B5C96B",
"; c #933686",
": c #8F4585",
"> c #9E4A92",
", c #CE4CBD",
"< c #CF4CBD",
"1 c #E655D3",
"2 c #E966D7",
"3 c #EB76DB",
"4 c #45A3CB",
"5 c #4DB6E3",
"6 c #5FBDE5",
"7 c #FCF3B3",
/* pixels */
"&&&&&7&&&&&&&&&&--&&&&&&&&&&&&&&&&&&&&&&&&&&&&&&&&",
"&&&&&&&&&&&&&&&&&&&&&&&&&&&=&&&&&&&&&&&&&&&&&&&&&&",
"&&&&&&&&&&&&&&&&&&&&&&&&&&&&&&&&&&&&&&&&&&&-&&&&&&",
"&&=&&&&&&&&=&&&&&&&-&&&&&&&&&&&&&&&&&-&&&&&--&&&&&",
"&&&&&&&&&&&&&&&7&&&&&&&&&&&&&&&&&&&&&&&&&&&&&&=&&&",
"&&&&&&&&&&&&&&&7&&&&&&&&&&&&7&&&&&&&&&&&&&&&&&&&&&",
"&&&&&&&&&&&&&&&&&&&&&&&&&&&&&&&&&&&&&&&&&&&&&&&&&&",
"&&&&&&&&&&&&&&&&&&&&&&=&&&&&&&&&&&&&&&&&&&&&&&&&&&",
"&&&&&-&&&&&&&&&&&&&&&&&&&&OoX&&&=&&&&&&&&&&&&&&&&&",
"&&&&&&&&&&&&&&&&-&&&&&&&&OooX&&&&&&&&&&&&&&&&&&&&&",
"&&&&&&&&&&&&&&&&&&&&OoooX*ooX&&&&&&&&&&&&&&&&&&&&&",
"&&&&&&&&&&=&&&&&&&&OoooooX*X&&&&&&&&&7&&&&-&&&=&&&",
"&&7&&&&&&===&&&&&&&OooooooX&&&&&&&&&&&&&&&&&&&&&&&",
"&&&&&&&&&&=&&&&&&&&+++ooooX&&&&&&4&&&&&&&&&&&&&&&&",
"&&&&&&&&&&&&&&&&&&&$ @X++oX&&&-&44&&&&&&&&&&&&&&&&",
"&&&&&&&&&&&&&&&&&&&$.@@@+oX&&--454&&&&&&&&&&&&&&&7",
"7&&&&&&&&&&&&&&&&&&$@@@@+X&&&&4554&&&&&&&&&&&&&&77",
"&&&&&&&&&&&&&&&&&&&&$$@@@+&&&45554=&&&&&&&&&&&&&&7",
"&&&&&&&&&&&&&&&&&&&&&&$,,,,&455554&&&&&&&&&&&&&&&&",
"&&&&&&&&&&&&&&&&&&&&&&21,+++555554&&&&&&&&&&&&&&&&",
"&&&=&&&&&&&&&-&&&&&&&+21,@@+66666&&&&&&&&&=&&&&&&&",
"&&&&&&&&&&&&&&&&&&&&@+21,$@@+&&&&&&&&&&&&&&&&&&&&&",
"&&&&&&&&&&&&&&&&&&&&@+211,$@+44&&&&&&&&&&&&&&&&&&&",
"&&&&&&&7&&&&&&&&&&&$@+2111,@+5544&&&&&&&&&&&&&&&&&",
"&&&&&&&&&&&&=&&&&&&$@&3222,@+55554&&&&&&&&&&&&&&&&",
"&&&&&&&&&&&&&&&&&&$@@&&>;;$@+65554&&&=&&&&&&&&&-&&",
"&&&&&&&&&&&&&&&&&-$@&&&>;;@@+&6554&&===&&&&&&&&&&&",
"&&&&&-&&&&&&&&&&&&&&&&111111,&&654&&&=&&&&&&&&&&&&",
"&&&&&&&&&&&&&&&&&&&&&21111111,&&64&&&&&&&&&&&&&&&&",
"&&&&&&&&&&&&&&&&&&&&&21111111,&&&4&&&&&&&&=&&&&&&&",
"&&&&&&&&&&&7&&&&&&&&++21111111,&&&&&&&&&&&&&&&&&&&",
"&&&&&&&&&&&&&&&&&&&$@@+2222222,&&&&&&&&&&&&&&&&&&&",
"&&&&&&&&&&&&&&&&&&&$@@+&&&++++&&&&&&&&&&&&&&&&&&&&",
"&&&=&&&&&&&&=&&&&&&$@+&&&&$@@@++%%#&&&&&&&&&&&&&&&",
"&&&&&&&&&&&&&&&&&&&$@+&&&&$@@@@+:%#&&&&&&&&&&&&7&&",
"&&&&&&&&&&&&&&&&&&=$@@+&&&&$@@@+:%#&&&&&&&&&&&&&&&",
"&&&&&&-&&&&&&&&&&&&=$@+&&&&&=&&&&:#-&&&&&-&&&&&&&&",
"&&&&&--&&&&&&&&&&&&&:%#&&&&&&&&&&&#&&&&&&&&&&&&&&&",
"&&&&&&&&&&&&&&&&&&&:%%#&&&&&&&&&&&&&&&&&&&&&&&&&-&",
"&&&&&&&&&&&&&&&&&&:%%%#&&&&&&&&&&&&&&&&&&&&&&&&&&&",
"&&&&&&&&&&&&&&&&=&&&&&&&&&&&&&&&&&&&&&&&&&&&&&&&&&",
"&&&&&&&&&&&&&&&&&&&&&&&&&&&&&&&&&&&&&&&&&&&&&&&&&&",
"&&=&&&&&&&&&&&&&&&&&&&&&-&&&&&&&&&&&=&&&&&&&&&&&&&",
"&&&&&&&&-&&&&&&&&&&&&&&&&&&&&&&&&&&&&&&&&&&&&&&&&&",
"&&&&&&&&&&&&&&&&&&&&&&&&&&&&&&&7&&&&&&&&&&&&&&&&&&",
"&&&&&&&&&&&&7&&&&&&=&&&&&&&&&&&&&&&&&&&&&&&&&&&&&&",
"&&&&&&&&&&&&7&&&&&&&&&&&&&&&&&&&&&&&&&&&&&&&&&=&&&",
"&&&&&&=&&&&&&&&&&&&&&&&&&&&&=&&&&&&&&&&-&&&&&&&&&&",
"&&&&&&&&&&&&&&&&&&&&&&&&&&&&&&&&&&&&&&&&&&&&&&&&&&",
"&&&&&&&&&&&&&&&&-&&&&&&&&&&&&&&&&&&77&&&&&&&&&&&&&"
};
