/* XPM */
static char *be5413e7706b45b58ea3def5b533f01aStuC6Ox0J0MPGq5s[] = {
/* columns rows colors chars-per-pixel */
"50 50 4 1 ",
"  c #ED1C24",
". c #9C5A3C",
"X c #FFC20E",
"o c #B5A5D5",
/* pixels */
"oooooooooooooooooooooooooooooooooooooooooooooooooo",
"oooooooooooooooooooooooooooooooooooooooooooooooooo",
"oooooooooooooooooooooooooooooooooooooooooooooooooo",
"oooooooooooooooooooooooooooooooooooooooooooooooooo",
"oooooooooooooooooooooooooooooooooooooooooooooooooo",
"oooooooooooooooooooooooooooooooooooooooooooooooooo",
"oooooooooooooooooooooooooooooooooooooooooooooooooo",
"oooooooooooooooooooooooooooooooooooooooooooooooooo",
"oooooooooooooooooooooooooooooooooooooooooooooooooo",
"oooooooooooooooooooooooooooooooooooooooooooooooooo",
"oooooooooooooooooooooooooooooooooooooooooooooooooo",
"oooooooooooooooooooooooooooooooooooooooooooooooooo",
"oooooooooooooooooooooooooooooooooooooooooooooooooo",
"ooooooooooooo                         oooooooooooo",
"ooooooooooooo                         oooooooooooo",
"ooooooooooooo                         oooooooooooo",
"ooooooooooooo   ...................   oooooooooooo",
"ooooooooooooo   ...................   oooooooooooo",
"ooooooooooooo   ...................   oooooooooooo",
"ooooooooooooo   ...XXXXXXXXXXXXX...   oooooooooooo",
"ooooooooooooo   ...XXXXXXXXXXXXX...   oooooooooooo",
"ooooooooooooo   ...XXXXXXXXXXXXX...   oooooooooooo",
"ooooooooooooo   ...XXX       XXX...   oooooooooooo",
"ooooooooooooo   ...XXX       XXX...   oooooooooooo",
"ooooooooooooo   ...XXX       XXX...   oooooooooooo",
"ooooooooooooo   ...XXX       XXX...   oooooooooooo",
"ooooooooooooo   ...XXX       XXX...   oooooooooooo",
"ooooooooooooo   ...XXX       XXX...   oooooooooooo",
"ooooooooooooo   ...XXX       XXX...   oooooooooooo",
"ooooooooooooo   ...XXXXXXXXXXXXX...   oooooooooooo",
"ooooooooooooo   ...XXXXXXXXXXXXX...   oooooooooooo",
"ooooooooooooo   ...XXXXXXXXXXXXX...   oooooooooooo",
"ooooooooooooo   ...................   oooooooooooo",
"ooooooooooooo   ...................   oooooooooooo",
"ooooooooooooo   ...................   oooooooooooo",
"ooooooooooooo                         oooooooooooo",
"ooooooooooooo                         oooooooooooo",
"ooooooooooooo                         oooooooooooo",
"oooooooooooooooooooooooooooooooooooooooooooooooooo",
"oooooooooooooooooooooooooooooooooooooooooooooooooo",
"oooooooooooooooooooooooooooooooooooooooooooooooooo",
"oooooooooooooooooooooooooooooooooooooooooooooooooo",
"oooooooooooooooooooooooooooooooooooooooooooooooooo",
"oooooooooooooooooooooooooooooooooooooooooooooooooo",
"oooooooooooooooooooooooooooooooooooooooooooooooooo",
"oooooooooooooooooooooooooooooooooooooooooooooooooo",
"oooooooooooooooooooooooooooooooooooooooooooooooooo",
"oooooooooooooooooooooooooooooooooooooooooooooooooo",
"oooooooooooooooooooooooooooooooooooooooooooooooooo",
"oooooooooooooooooooooooooooooooooooooooooooooooooo"
};
