/* XPM */
static char *_adb117742c4473ffb590d5a89ad469fUGqnVFhoOvDPW4Uf[] = {
/* columns rows colors chars-per-pixel */
"50 50 4 1 ",
"  c #78C672",
". c #88CF64",
"X c #B5C96B",
"o c #FCF3B3",
/* pixels */
"     o          XX                                ",
"                           .                      ",
"                                           X      ",
"  .        .       X                 X     XX     ",
"               o                              .   ",
"               o            o                     ",
"                                                  ",
"                      .                           ",
"     X                          .                 ",
"                X                                 ",
"                                                  ",
"          .                X         o    X   .   ",
"  o      ...                                      ",
"          .                                       ",
"                              X                   ",
"                     .       XX                  o",
"o                                               oo",
"                                  .              o",
"                                                  ",
"                                                  ",
"   .         X       o    X               .       ",
"                                                  ",
"                                                  ",
"       o                       oo                 ",
"            .                                     ",
"                                     .         X  ",
"                 X       .          ...           ",
"     X                               .            ",
"                                                  ",
"                                 .        .       ",
"           o                                      ",
"                                                  ",
"                             o                    ",
"   .        .                                     ",
"                   .                           o  ",
"                  ...             X               ",
"      X            .        .     XX     X        ",
"     XX                                           ",
"                                                X ",
"                                                  ",
"                .                                 ",
"                                                  ",
"  .                     X           .             ",
"        X                                         ",
"                               o                  ",
"            o      .                              ",
"            o                                 .   ",
"      .                     .          X          ",
"                                                  ",
"                X                  oo             "
};
